<svg width="17" height="13" viewBox="0 0 17 13" fill="none" xmlns="http://www.w3.org/2000/svg">
<path d="M15.8291 0.264648V1.17383C14.5426 1.64388 13.5345 2.38607 12.8047 3.40039C12.0749 4.40234 11.71 5.44759 11.71 6.53613C11.71 6.77116 11.7471 6.94434 11.8213 7.05566C11.8708 7.12988 11.9264 7.16699 11.9883 7.16699C12.0501 7.16699 12.1429 7.1237 12.2666 7.03711C12.6624 6.7526 13.1634 6.61035 13.7695 6.61035C14.4746 6.61035 15.0993 6.90104 15.6436 7.48242C16.1878 8.05143 16.46 8.73177 16.46 9.52344C16.46 10.3522 16.1445 11.082 15.5137 11.7129C14.8952 12.3438 14.1406 12.6592 13.25 12.6592C12.2109 12.6592 11.3141 12.2324 10.5596 11.3789C9.80501 10.5254 9.42773 9.38118 9.42773 7.94629C9.42773 6.27637 9.94108 4.77962 10.9678 3.45605C11.9945 2.13249 13.6149 1.06868 15.8291 0.264648ZM6.9043 0.264648V1.17383C5.61784 1.64388 4.6097 2.38607 3.87988 3.40039C3.15007 4.40234 2.78516 5.44759 2.78516 6.53613C2.78516 6.77116 2.82227 6.94434 2.89648 7.05566C2.94596 7.12988 3.00163 7.16699 3.06348 7.16699C3.12533 7.16699 3.2181 7.1237 3.3418 7.03711C3.73763 6.7526 4.23861 6.61035 4.84473 6.61035C5.5498 6.61035 6.17448 6.90104 6.71875 7.48242C7.26302 8.05143 7.53516 8.73177 7.53516 9.52344C7.53516 10.3522 7.21973 11.082 6.58887 11.7129C5.97038 12.3438 5.21582 12.6592 4.3252 12.6592C3.28613 12.6592 2.38932 12.2324 1.63477 11.3789C0.880208 10.5254 0.50293 9.38118 0.50293 7.94629C0.50293 6.27637 1.01628 4.77962 2.04297 3.45605C3.06966 2.13249 4.6901 1.06868 6.9043 0.264648Z" fill="#9B2E46"/>
</svg>
