<svg width="17" height="13" viewBox="0 0 17 13" fill="none" xmlns="http://www.w3.org/2000/svg">
<path d="M1.1709 12.6592V11.7314C2.44499 11.2614 3.44694 10.5254 4.17676 9.52344C4.90658 8.50911 5.27148 7.45768 5.27148 6.36914C5.27148 6.13411 5.23438 5.96094 5.16016 5.84961C5.12305 5.77539 5.07357 5.73828 5.01172 5.73828C4.94987 5.73828 4.85091 5.78776 4.71484 5.88672C4.31901 6.17122 3.82422 6.31348 3.23047 6.31348C2.51302 6.31348 1.88216 6.02897 1.33789 5.45996C0.80599 4.87858 0.540039 4.19206 0.540039 3.40039C0.540039 2.55924 0.849284 1.82943 1.46777 1.21094C2.08626 0.580078 2.84701 0.264648 3.75 0.264648C4.77669 0.264648 5.66732 0.691406 6.42188 1.54492C7.1888 2.38607 7.57227 3.52409 7.57227 4.95898C7.57227 6.62891 7.05892 8.12565 6.03223 9.44922C5.00553 10.7728 3.38509 11.8428 1.1709 12.6592ZM10.0957 12.6592V11.7314C11.3698 11.2614 12.3717 10.5254 13.1016 9.52344C13.8314 8.50911 14.1963 7.45768 14.1963 6.36914C14.1963 6.13411 14.1592 5.96094 14.085 5.84961C14.0479 5.77539 13.9984 5.73828 13.9365 5.73828C13.8747 5.73828 13.7757 5.78776 13.6396 5.88672C13.2438 6.17122 12.749 6.31348 12.1553 6.31348C11.4378 6.31348 10.807 6.02897 10.2627 5.45996C9.73079 4.87858 9.46484 4.19206 9.46484 3.40039C9.46484 2.55924 9.77409 1.82943 10.3926 1.21094C11.0111 0.580078 11.7718 0.264648 12.6748 0.264648C13.7015 0.264648 14.5921 0.691406 15.3467 1.54492C16.1136 2.38607 16.4971 3.52409 16.4971 4.95898C16.4971 6.62891 15.9837 8.12565 14.957 9.44922C13.9303 10.7728 12.3099 11.8428 10.0957 12.6592Z" fill="#9B2E46"/>
</svg>
